# xmcd
# 
# Track frame offsets:
#     183
#     30658
#     47400
#     65258
#     87553
#     106668
#     118225
#     135668
#     148818
#     160595
#     184050
#     199283
#     211968
# 
# Disc length: 2949
# 
# Revision: 5
# Processed by: cddbd v1.5.2PL0 Copyright (c) Steve Scherf et al.
# Submitted via: BonkEnc v1.0rc1
# 
DISCID=b70b830d
DTITLE=Muddy Waters - Live In Antibes 1974
DYEAR=0
DGENRE=Blues
TTITLE0=Honky Tonk
TTITLE1=Off The Wall
TTITLE2=Blow Wind Blow
TTITLE3=Howlin´ Wolf
TTITLE4=Cant´ Get No Grindin
TTITLE5=Trouble No More
TTITLE6=Garbage Man
TTITLE7=I´m Your Hoochie Coochie Man
TTITLE8=Baby, Please Don´t Go
TTITLE9=Manish Boy
TTITLE10=Everything Gonna Be Allright
TTITLE11=Got My Mojo Working
TTITLE12=Got My Mojo Working, reprise
EXTD=
EXTT0=
EXTT1=
EXTT2=
EXTT3=
EXTT4=
EXTT5=
EXTT6=
EXTT7=
EXTT8=
EXTT9=
EXTT10=
EXTT11=
EXTT12=
PLAYORDER=
